<svg id="Layer_1" data-name="Layer 1" xmlns="http://www.w3.org/2000/svg" xmlns:xlink="http://www.w3.org/1999/xlink" viewBox="0 0 70 70"><defs><style>.cls-1{fill:url(#linear-gradient);}.cls-2{fill:url(#linear-gradient-2);}</style><linearGradient id="linear-gradient" x1="35" y1="60.38" x2="35" y2="9.1" gradientUnits="userSpaceOnUse"><stop offset="0" stop-color="#77b8d7"/><stop offset="1" stop-color="#3f8298"/></linearGradient><linearGradient id="linear-gradient-2" x1="36" y1="60.38" x2="36" y2="9.1" xlink:href="#linear-gradient"/></defs><title>icons</title><path class="cls-1" d="M56,26.1A17.12,17.12,0,0,0,39.08,9.9a17.63,17.63,0,0,0-13.95,7l-.22-.1-.61-.27L24,16.41l-.61-.19L23,16.13a6,6,0,0,0-.68-.12L22,16a9.52,9.52,0,0,0-1-.06,9,9,0,0,0-9,9c0,.13,0,.25,0,.38A13.82,13.82,0,0,0,5,37.05,12.86,12.86,0,0,0,17.85,49.9H23a1,1,0,0,0,0-2H17.85A10.85,10.85,0,0,1,7,37.05,11.89,11.89,0,0,1,13.43,26.8l.57-.27V25.9c0-.12,0-.25,0-.38v-.36c0-.09,0-.18,0-.26a7,7,0,0,1,7-7,7.24,7.24,0,0,1,.92.07l.23,0a7.56,7.56,0,0,1,.79.18l.1,0a7.29,7.29,0,0,1,.84.32l.21.1c.24.12.48.26.71.4A7,7,0,0,1,28,24.9a1,1,0,0,0,2,0A9,9,0,0,0,26.8,18,15.84,15.84,0,0,1,39.08,11.9,15.1,15.1,0,0,1,53.93,25.79a18.84,18.84,0,0,0-4.08.12,1,1,0,0,0,.15,2h.15a18.26,18.26,0,0,1,4.68,0,10.24,10.24,0,0,1,8.16,10,10,10,0,0,1-10,10H49a1,1,0,0,0,0,2h4a12,12,0,0,0,12-12A12.3,12.3,0,0,0,56,26.1Zm0,0"/><path class="cls-2" d="M36.71,36.19A1,1,0,0,0,35.62,36a1,1,0,0,0-.33.21l-8,8a1,1,0,0,0,0,1.41,1,1,0,0,0,1.41,0L35,39.31V59.9a1,1,0,1,0,2,0V39.31l6.29,6.29a1,1,0,1,0,1.42-1.41Zm0,0"/></svg>